<mxfile host="app.diagrams.net" agent="Mozilla/5.0 (Macintosh; Intel Mac OS X 10_15_7) AppleWebKit/537.36 (KHTML, like Gecko) Chrome/130.0.0.0 Safari/537.36" version="24.8.4">
  <diagram name="Page-1" id="enSDpXF3sVuZdZPKr21c">
    <mxGraphModel dx="822" dy="499" grid="1" gridSize="10" guides="1" tooltips="1" connect="1" arrows="1" fold="1" page="1" pageScale="1" pageWidth="827" pageHeight="1169" math="0" shadow="0">
      <root>
        <mxCell id="0" />
        <mxCell id="1" parent="0" />
        <mxCell id="2" value="Directory Layout" style="whiteSpace=wrap;strokeWidth=2;" parent="1" vertex="1">
          <mxGeometry x="358" y="8" width="221" height="513" as="geometry" />
        </mxCell>
        <mxCell id="3" value="SecureSense Project" style="whiteSpace=wrap;strokeWidth=2;" parent="1" vertex="1">
          <mxGeometry x="33" y="106.5" width="300" height="414" as="geometry" />
        </mxCell>
        <mxCell id="4" value="Project" style="rounded=1;arcSize=40;strokeWidth=2" parent="1" vertex="1">
          <mxGeometry x="33" y="289" width="82" height="49" as="geometry" />
        </mxCell>
        <mxCell id="5" value="Styles" style="rounded=1;arcSize=40;strokeWidth=2" parent="1" vertex="1">
          <mxGeometry x="188" y="142" width="72" height="49" as="geometry" />
        </mxCell>
        <mxCell id="6" value="Assets" style="rounded=1;arcSize=40;strokeWidth=2" parent="1" vertex="1">
          <mxGeometry x="187" y="240" width="74" height="49" as="geometry" />
        </mxCell>
        <mxCell id="7" value="Components" style="rounded=1;arcSize=40;strokeWidth=2" parent="1" vertex="1">
          <mxGeometry x="165" y="339" width="118" height="49" as="geometry" />
        </mxCell>
        <mxCell id="8" value="Services" style="rounded=1;arcSize=40;strokeWidth=2" parent="1" vertex="1">
          <mxGeometry x="180" y="437" width="88" height="49" as="geometry" />
        </mxCell>
        <mxCell id="9" value="Source" style="rounded=1;arcSize=40;strokeWidth=2" parent="1" vertex="1">
          <mxGeometry x="429" y="43" width="78" height="49" as="geometry" />
        </mxCell>
        <mxCell id="10" value="Source Styles" style="rounded=1;arcSize=40;strokeWidth=2" parent="1" vertex="1">
          <mxGeometry x="406" y="142" width="125" height="49" as="geometry" />
        </mxCell>
        <mxCell id="11" value="Source Assets" style="rounded=1;arcSize=40;strokeWidth=2" parent="1" vertex="1">
          <mxGeometry x="405" y="240" width="126" height="49" as="geometry" />
        </mxCell>
        <mxCell id="12" value="Source Components" style="rounded=1;arcSize=40;strokeWidth=2" parent="1" vertex="1">
          <mxGeometry x="383" y="339" width="171" height="49" as="geometry" />
        </mxCell>
        <mxCell id="13" value="Source Services" style="rounded=1;arcSize=40;strokeWidth=2" parent="1" vertex="1">
          <mxGeometry x="398" y="437" width="141" height="49" as="geometry" />
        </mxCell>
        <mxCell id="14" value="" style="curved=1;startArrow=none;endArrow=block;exitX=0.63;exitY=0.01;entryX=0;entryY=0.48;" parent="1" source="4" target="5" edge="1">
          <mxGeometry relative="1" as="geometry">
            <Array as="points">
              <mxPoint x="140" y="166" />
            </Array>
          </mxGeometry>
        </mxCell>
        <mxCell id="15" value="" style="curved=1;startArrow=none;endArrow=block;exitX=0.89;exitY=0.01;entryX=0;entryY=0.49;" parent="1" source="4" target="6" edge="1">
          <mxGeometry relative="1" as="geometry">
            <Array as="points">
              <mxPoint x="140" y="264" />
            </Array>
          </mxGeometry>
        </mxCell>
        <mxCell id="16" value="" style="curved=1;startArrow=none;endArrow=block;exitX=0.89;exitY=0.99;entryX=0;entryY=0.48;" parent="1" source="4" target="7" edge="1">
          <mxGeometry relative="1" as="geometry">
            <Array as="points">
              <mxPoint x="140" y="363" />
            </Array>
          </mxGeometry>
        </mxCell>
        <mxCell id="17" value="" style="curved=1;startArrow=none;endArrow=block;exitX=0.63;exitY=0.99;entryX=0;entryY=0.49;" parent="1" source="4" target="8" edge="1">
          <mxGeometry relative="1" as="geometry">
            <Array as="points">
              <mxPoint x="140" y="461" />
            </Array>
          </mxGeometry>
        </mxCell>
        <mxCell id="18" value="" style="curved=1;startArrow=none;endArrow=block;exitX=1;exitY=0.48;entryX=0;entryY=0.48;" parent="1" source="5" target="10" edge="1">
          <mxGeometry relative="1" as="geometry">
            <Array as="points" />
          </mxGeometry>
        </mxCell>
        <mxCell id="19" value="" style="curved=1;startArrow=none;endArrow=block;exitX=1;exitY=0.49;entryX=0;entryY=0.49;" parent="1" source="6" target="11" edge="1">
          <mxGeometry relative="1" as="geometry">
            <Array as="points" />
          </mxGeometry>
        </mxCell>
        <mxCell id="20" value="" style="curved=1;startArrow=none;endArrow=block;exitX=1;exitY=0.48;entryX=0;entryY=0.48;" parent="1" source="7" target="12" edge="1">
          <mxGeometry relative="1" as="geometry">
            <Array as="points" />
          </mxGeometry>
        </mxCell>
        <mxCell id="21" value="" style="curved=1;startArrow=none;endArrow=block;exitX=1;exitY=0.49;entryX=0;entryY=0.49;" parent="1" source="8" target="13" edge="1">
          <mxGeometry relative="1" as="geometry">
            <Array as="points" />
          </mxGeometry>
        </mxCell>
      </root>
    </mxGraphModel>
  </diagram>
</mxfile>
